<?xml version="1.0" encoding="UTF-8"?>
<svg version="1.1" xmlns="http://www.w3.org/2000/svg" width="736" height="1308">
<path d="M0 0 C242.88 0 485.76 0 736 0 C736 431.64 736 863.28 736 1308 C493.12 1308 250.24 1308 0 1308 C0 876.36 0 444.72 0 0 Z " fill="#000000" transform="translate(0,0)"/>
<path d="M0 0 C4.46635712 0.65361324 8.67060054 1.73361205 13 3 C12.35867797 6.12594352 11.71117727 9.25057522 11.0625 12.375 C10.88009766 13.26445313 10.69769531 14.15390625 10.50976562 15.0703125 C10.33251953 15.92109375 10.15527344 16.771875 9.97265625 17.6484375 C9.72914429 18.82672119 9.72914429 18.82672119 9.48071289 20.02880859 C9 22 9 22 8 24 C11.63 24.66 15.26 25.32 19 26 C19.28875 24.185 19.5775 22.37 19.875 20.5 C20.69061252 15.58302168 21.70478289 10.81080642 23 6 C24.79232337 6.30871122 26.58384321 6.62209064 28.375 6.9375 C29.37273437 7.11152344 30.37046875 7.28554688 31.3984375 7.46484375 C34 8 34 8 36 9 C35.3622098 16.52592433 33.80110167 23.67098882 32 31 C32.556875 31.15855469 33.11375 31.31710937 33.6875 31.48046875 C44.13169358 34.67371037 51.70611322 39.90575227 57.4375 49.375 C59.16484729 57.435954 58.27864011 64.88081826 54 72 C51.60185292 74.74705782 49.14991682 77.14204125 46 79 C44.68 79 43.36 79 42 79 C42 79.66 42 80.32 42 81 C43.051875 81.2784375 43.051875 81.2784375 44.125 81.5625 C49.15310409 84.07655204 52.89719393 88.79166089 55 94 C56.18670713 103.50906883 54.47244525 113.03078438 48.875 120.875 C44.14549354 126.46623857 38.28674958 130.00956802 31 131 C27.85283819 131.13741129 24.71220878 131.13954831 21.5625 131.125 C20.72912109 131.12886719 19.89574219 131.13273438 19.03710938 131.13671875 C14.57797413 131.12966873 10.38879575 130.89916791 6 130 C5.9175 131.2375 5.835 132.475 5.75 133.75 C5.10443016 139.79137746 3.0672672 145.317419 1 151 C-3.3177458 150.49202991 -7.03302114 149.80317221 -11 148 C-10.51298949 140.40935336 -9.00236413 133.32940833 -7 126 C-8.27875 125.855625 -9.5575 125.71125 -10.875 125.5625 C-13.25692894 125.29357254 -14.84452691 125.07773654 -17 124 C-17.27714844 125.26457031 -17.55429687 126.52914062 -17.83984375 127.83203125 C-18.20564498 129.49220605 -18.57153502 131.15236129 -18.9375 132.8125 C-19.11990234 133.64587891 -19.30230469 134.47925781 -19.49023438 135.33789062 C-19.66748047 136.14033203 -19.84472656 136.94277344 -20.02734375 137.76953125 C-20.18968506 138.50792236 -20.35202637 139.24631348 -20.51928711 140.00708008 C-21 142 -21 142 -22 145 C-26.571279 144.45144652 -30.67435795 143.58255197 -35 142 C-33.89644911 134.44392214 -32.40656211 127.25177382 -30 120 C-30.62003906 119.90203125 -31.24007813 119.8040625 -31.87890625 119.703125 C-40.07379045 118.31941821 -48.00251771 116.22332166 -56 114 C-55.39644592 110.14974121 -54.23227397 107.13898841 -52.4375 103.6875 C-51.75494141 102.36298828 -51.75494141 102.36298828 -51.05859375 101.01171875 C-50.70925781 100.34785156 -50.35992187 99.68398438 -50 99 C-49.175 99.165 -48.35 99.33 -47.5 99.5 C-43.58727683 100.05896045 -39.94816827 100.06807187 -36 100 C-33.83345059 92.98022466 -31.88911829 85.92494863 -30.08203125 78.8046875 C-29.81992355 77.77240021 -29.55781586 76.74011292 -29.2877655 75.67654419 C-28.73937753 73.5104593 -28.19238332 71.34402111 -27.64672852 69.17724609 C-27.08940263 66.97110331 -26.52785952 64.76602173 -25.9621582 62.56201172 C-25.13868819 59.35350737 -24.32775075 56.14206291 -23.51953125 52.9296875 C-23.26645706 51.95240692 -23.01338287 50.97512634 -22.75263977 49.9682312 C-21.38969954 44.48188257 -20.73161276 39.65319236 -21 34 C-25.62765919 31.45478745 -29.8896856 30.1454153 -35 29 C-34.69024532 27.22868439 -34.37709575 25.45796222 -34.0625 23.6875 C-33.80146484 22.20830078 -33.80146484 22.20830078 -33.53515625 20.69921875 C-33 18 -33 18 -32 15 C-18.5 18 -18.5 18 -5 21 C-4.89042969 20.32195313 -4.78085937 19.64390625 -4.66796875 18.9453125 C-3.56212481 12.4540985 -2.03701908 6.26043863 0 0 Z " fill="#F6921A" transform="translate(366,578)"/>
<path d="M0 0 C6.08233706 0.67581523 12.01314152 1.73638028 18 3 C18 3.66 18 4.32 18 5 C18.66386719 5.19335938 19.32773437 5.38671875 20.01171875 5.5859375 C28.78207381 8.17223199 28.78207381 8.17223199 33 10 C32.505 7.525 32.505 7.525 32 5 C32.99 4.67 33.98 4.34 35 4 C37 6 37 6 37 9 C40.12290635 8.51421457 42.99580359 8.0013988 46 7 C46.33 5.35 46.66 3.7 47 2 C47.495 2.99 47.495 2.99 48 4 C49.0828125 4.3403125 49.0828125 4.3403125 50.1875 4.6875 C55.22534835 7.0384959 58.92758317 11.86693053 61 17 C62.18670713 26.50906883 60.47244525 36.03078438 54.875 43.875 C50.14549354 49.46623857 44.28674958 53.00956802 37 54 C33.85283819 54.13741129 30.71220878 54.13954831 27.5625 54.125 C26.31243164 54.13080078 26.31243164 54.13080078 25.03710938 54.13671875 C20.57797413 54.12966873 16.38879575 53.89916791 12 53 C11.9175 54.2375 11.835 55.475 11.75 56.75 C11.10443016 62.79137746 9.0672672 68.317419 7 74 C2.6822542 73.49202991 -1.03302114 72.80317221 -5 71 C-4.51298949 63.40935336 -3.00236413 56.32940833 -1 49 C-2.27875 48.855625 -3.5575 48.71125 -4.875 48.5625 C-7.25692894 48.29357254 -8.84452691 48.07773654 -11 47 C-11.27714844 48.26457031 -11.55429687 49.52914062 -11.83984375 50.83203125 C-12.20564498 52.49220605 -12.57153502 54.15236129 -12.9375 55.8125 C-13.21110352 57.06256836 -13.21110352 57.06256836 -13.49023438 58.33789062 C-13.66748047 59.14033203 -13.84472656 59.94277344 -14.02734375 60.76953125 C-14.18968506 61.50792236 -14.35202637 62.24631348 -14.51928711 63.00708008 C-15 65 -15 65 -16 68 C-20.571279 67.45144652 -24.67435795 66.58255197 -29 65 C-27.89644911 57.44392214 -26.40656211 50.25177382 -24 43 C-24.93005859 42.85304688 -24.93005859 42.85304688 -25.87890625 42.703125 C-34.07379045 41.31941821 -42.00251771 39.22332166 -50 37 C-49.33758211 33.44920141 -48.42518229 30.32542534 -47 27 C-46.67 27 -46.34 27 -46 27 C-46 29.64 -46 32.28 -46 35 C-44.5459375 35.185625 -44.5459375 35.185625 -43.0625 35.375 C-42.051875 35.58125 -41.04125 35.7875 -40 36 C-39.67 36.66 -39.34 37.32 -39 38 C-36.48889362 38.63951074 -34.04430034 39.16749278 -31.5 39.625 C-30.79746094 39.7590625 -30.09492188 39.893125 -29.37109375 40.03125 C-26.20754892 40.71472197 -26.20754892 40.71472197 -23 41 C-23 44.63 -23 48.26 -23 52 C-21.35 51.01 -19.7 50.02 -18 49 C-18 49.99 -18 50.98 -18 52 C-17.34 52 -16.68 52 -16 52 C-15.67 49.69 -15.34 47.38 -15 45 C-9.96488101 43.9929762 -6.76052962 44.02612187 -2 46 C-2.66 44.35 -3.32 42.7 -4 41 C-1.23776722 38.23776722 1.20706617 38.42143709 5 38 C1.41247258 36.13448574 -2.27812193 34.57464072 -6 33 C-6 32.67 -6 32.34 -6 32 C1.55552693 32.89641845 1.55552693 32.89641845 4.24609375 33.5234375 C7.9556237 34.16537034 11.62267919 34.18422 15.375 34.1875 C16.10460937 34.19974609 16.83421875 34.21199219 17.5859375 34.22460938 C22.42312454 34.23756613 26.45782673 33.72148948 31 32 C33.24810301 27.7970248 33.50355499 23.69984656 33 19 C29.41486632 11.68632729 23.80342214 9.54882267 16.4934082 7.04125977 C11.03438085 5.216681 5.54002123 3.55634617 0 2 C-0.33 4.31 -0.66 6.62 -1 9 C-1.33 9 -1.66 9 -2 9 C-2.25 3.375 -2.25 3.375 0 0 Z " fill="#F5921C" transform="translate(360,655)"/>
<path d="M0 0 C24.25452745 4.53401837 24.25452745 4.53401837 32 13 C34.20992835 16.79596537 34.37977717 19.59458479 34 24 C32.6440947 28.14747504 31.77009671 29.59275587 27.8828125 31.6484375 C23.94324052 33.21836888 20.14356675 33.45671842 15.9375 33.375 C14.84127319 33.36629883 14.84127319 33.36629883 13.72290039 33.35742188 C6.58573179 33.19045248 -0.10077498 31.83687766 -7 30 C-5.67976697 23.06270762 -4.11854568 16.21740311 -2.375 9.375 C-2.03082031 8.01181641 -2.03082031 8.01181641 -1.6796875 6.62109375 C-1.1219792 4.41349839 -0.56206087 2.2064904 0 0 Z " fill="#030102" transform="translate(360,657)"/>
<path d="M0 0 C10.04156602 0.77242816 20.11495782 3.20140853 27 11 C29.11369554 15.22739107 28.16435476 19.44301998 26.875 23.8125 C25 27 25 27 22.30078125 28.1796875 C12.72918888 30.55842643 3.20392632 29.15563188 -6 26 C-4.85576538 20.15767263 -3.66273561 14.32587521 -2.4375 8.5 C-2.18871094 7.3140625 -1.93992187 6.128125 -1.68359375 4.90625 C-1 2 -1 2 0 0 Z " fill="#0A0403" transform="translate(370,618)"/>
<path d="M0 0 C4.46635712 0.65361324 8.67060054 1.73361205 13 3 C12.35867797 6.12594352 11.71117727 9.25057522 11.0625 12.375 C10.88009766 13.26445313 10.69769531 14.15390625 10.50976562 15.0703125 C10.33251953 15.92109375 10.15527344 16.771875 9.97265625 17.6484375 C9.81031494 18.43395996 9.64797363 19.21948242 9.48071289 20.02880859 C9 22 9 22 8 24 C11.63 24.66 15.26 25.32 19 26 C19.28875 24.185 19.5775 22.37 19.875 20.5 C20.69061252 15.58302168 21.70478289 10.81080642 23 6 C24.79232337 6.30871122 26.58384321 6.62209064 28.375 6.9375 C29.87160156 7.19853516 29.87160156 7.19853516 31.3984375 7.46484375 C34 8 34 8 36 9 C35.3622098 16.52592433 33.80110167 23.67098882 32 31 C32.556875 31.15855469 33.11375 31.31710937 33.6875 31.48046875 C44.13169358 34.67371037 51.70611322 39.90575227 57.4375 49.375 C59.16484729 57.435954 58.27864011 64.88081826 54 72 C51.60185292 74.74705782 49.14991682 77.14204125 46 79 C44.68 79 43.36 79 42 79 C42.495 77.02 42.495 77.02 43 75 C44.670625 74.62875 44.670625 74.62875 46.375 74.25 C50.04615198 73.38994661 50.04615198 73.38994661 51.4375 70.875 C51.623125 70.25625 51.80875 69.6375 52 69 C52.66 69 53.32 69 54 69 C55.32870256 61.19387246 55.32870256 53.80612754 54 46 C53.34 46 52.68 46 52 46 C51.319375 45.0409375 51.319375 45.0409375 50.625 44.0625 C48.78915127 41.7323843 47.87090587 41.39598702 45 41 C44.95875 40.38125 44.9175 39.7625 44.875 39.125 C44.58625 38.42375 44.2975 37.7225 44 37 C41.33499305 35.83169965 41.33499305 35.83169965 38 35 C36.536683 34.47194485 35.07831316 33.92999526 33.625 33.375 C32.42875 32.92125 31.2325 32.4675 30 32 C30.41313806 25.37891895 31.02166344 19.33067698 33 13 C33 11.68 33 10.36 33 9 C30.36 9 27.72 9 25 9 C24.01 13.95 23.02 18.9 22 24 C21.34 24 20.68 24 20 24 C20 25.98 20 27.96 20 30 C15.71 29.34 11.42 28.68 7 28 C5.8422494 24.52674819 5.93133348 21.63932552 6 18 C6.66 18 7.32 18 8 18 C8 15.36 8 12.72 8 10 C8.66 10 9.32 10 10 10 C10 8.02 10 6.04 10 4 C6.7 4 3.4 4 0 4 C0.020625 5.299375 0.04125 6.59875 0.0625 7.9375 C0.08399454 9.29165633 0.07148199 10.64756083 0 12 C-0.33 12.33 -0.66 12.66 -1 13 C-1.23192865 14.51469448 -1.41215238 16.03754562 -1.5625 17.5625 C-1.64628906 18.38878906 -1.73007812 19.21507812 -1.81640625 20.06640625 C-1.87699219 20.70449219 -1.93757813 21.34257813 -2 22 C-5.67062491 23.57312496 -7.44302674 24.14440048 -11.375 23.125 C-12.24125 22.75375 -13.1075 22.3825 -14 22 C-14 21.34 -14 20.68 -14 20 C-11.03 20.33 -8.06 20.66 -5 21 C-4.89042969 20.32195313 -4.78085937 19.64390625 -4.66796875 18.9453125 C-3.56212481 12.4540985 -2.03701908 6.26043863 0 0 Z " fill="#D18D3F" transform="translate(366,578)"/>
<path d="M0 0 C0.99 0 1.98 0 3 0 C2.67 1.65 2.34 3.3 2 5 C2.95519531 5.18175781 3.91039062 5.36351562 4.89453125 5.55078125 C12.6986175 7.06802633 20.36354926 8.76145623 28 11 C27.87882812 11.58265625 27.75765625 12.1653125 27.6328125 12.765625 C26.41989603 18.69958557 25.41804826 24.63242958 24.5625 30.62890625 C24.376875 31.41136719 24.19125 32.19382812 24 33 C23.01 33.495 23.01 33.495 22 34 C21.94529648 32.29203442 21.90689282 30.58354375 21.875 28.875 C21.85179687 27.92367187 21.82859375 26.97234375 21.8046875 25.9921875 C22 23 22 23 24 17 C18.72 17 13.44 17 8 17 C8 18.32 8 19.64 8 21 C8.99 21 9.98 21 11 21 C11 22.32 11 23.64 11 25 C9.35 25 7.7 25 6 25 C6 22.69 6 20.38 6 18 C3.36 18 0.72 18 -2 18 C-1.42655063 15.13275314 -1.1385485 14.1385485 1 12 C0.48824219 11.60167969 -0.02351563 11.20335937 -0.55078125 10.79296875 C-2 9 -2 9 -1.85546875 6.73828125 C-1.63503906 5.93777344 -1.41460937 5.13726563 -1.1875 4.3125 C-0.97480469 3.50425781 -0.76210938 2.69601562 -0.54296875 1.86328125 C-0.36378906 1.24839844 -0.18460937 0.63351562 0 0 Z " fill="#030205" transform="translate(308,687)"/>
<path d="M0 0 C0.33 0 0.66 0 1 0 C1 2.64 1 5.28 1 8 C1.969375 8.12375 2.93875 8.2475 3.9375 8.375 C4.948125 8.58125 5.95875 8.7875 7 9 C7.33 9.66 7.66 10.32 8 11 C10.51110638 11.63951074 12.95569966 12.16749278 15.5 12.625 C16.20253906 12.7590625 16.90507812 12.893125 17.62890625 13.03125 C20.79245108 13.71472197 20.79245108 13.71472197 24 14 C24 17.63 24 21.26 24 25 C25.65 24.01 27.3 23.02 29 22 C29 22.99 29 23.98 29 25 C29.66 25 30.32 25 31 25 C31.33 22.69 31.66 20.38 32 18 C33.32 17.67 34.64 17.34 36 17 C35.34 17.99 34.68 18.98 34 20 C32.05170639 26.82539462 31.50943277 33.94837797 31 41 C26.428721 40.45144652 22.32564205 39.58255197 18 38 C19.10355089 30.44392214 20.59343789 23.25177382 23 16 C22.06994141 15.85304688 22.06994141 15.85304688 21.12109375 15.703125 C12.92620955 14.31941821 4.99748229 12.22332166 -3 10 C-2.33758211 6.44920141 -1.42518229 3.32542534 0 0 Z " fill="#F4931D" transform="translate(313,682)"/>
<path d="M0 0 C8.91 1.98 8.91 1.98 18 4 C18 4.33 18 4.66 18 5 C12.22192976 5.2358396 7.48675196 4.86783046 2 3 C1.855625 3.763125 1.71125 4.52625 1.5625 5.3125 C1 8 1 8 0 11 C0.66 11 1.32 11 2 11 C2 11.99 2 12.98 2 14 C3.2375 13.87625 4.475 13.7525 5.75 13.625 C9.27063932 13.65621134 9.76701924 13.78449279 12.5 16.3125 C14.50682668 21.24594891 14.54745839 25.73183482 14 31 C13.67 31.33 13.34 31.66 13 32 C13.06446804 34.03074313 13.13267836 36.06193467 13.2578125 38.08984375 C13.17273438 38.72019531 13.08765625 39.35054687 13 40 C12.01 40.66 11.02 41.32 10 42 C9.18180934 43.79106971 9.18180934 43.79106971 8.71875 45.89453125 C8.51789795 46.67981201 8.3170459 47.46509277 8.11010742 48.27416992 C7.90877197 49.11181885 7.70743652 49.94946777 7.5 50.8125 C7.28641846 51.66239502 7.07283691 52.51229004 6.8527832 53.38793945 C6.22063976 55.92201014 5.60645682 58.45967043 5 61 C4.82903809 61.71510742 4.65807617 62.43021484 4.48193359 63.16699219 C3.62646842 66.77184958 2.79890301 70.38220342 2 74 C1.34 74 0.68 74 0 74 C1.03489871 67.34852401 2.48628507 60.84545434 4.1640625 54.33203125 C4.36191345 53.5618869 4.5597644 52.79174255 4.76361084 51.9982605 C5.59067115 48.79046038 6.42214071 45.58390729 7.26464844 42.38012695 C7.88554515 40.01206132 8.49431315 37.64112765 9.1015625 35.26953125 C9.2921524 34.55787308 9.48274231 33.8462149 9.67910767 33.11299133 C10.90338916 28.2883599 11.16957932 23.97816502 11 19 C6.37234081 16.45478745 2.1103144 15.1454153 -3 14 C-2.69024532 12.22868439 -2.37709575 10.45796222 -2.0625 8.6875 C-1.88847656 7.70136719 -1.71445312 6.71523438 -1.53515625 5.69921875 C-1 3 -1 3 0 0 Z " fill="#D68E3B" transform="translate(334,593)"/>
<path d="M0 0 C0.99 0.33 1.98 0.66 3 1 C-1.10785695 6.64830331 -5.38691739 9.723686 -12.16015625 11.59765625 C-16.25704578 12.17809589 -20.30520228 12.14408683 -24.4375 12.125 C-25.68756836 12.13080078 -25.68756836 12.13080078 -26.96289062 12.13671875 C-31.42202587 12.12966873 -35.61120425 11.89916791 -40 11 C-40.0825 12.2375 -40.165 13.475 -40.25 14.75 C-40.89556984 20.79137746 -42.9327328 26.317419 -45 32 C-49.3177458 31.49202991 -53.03302114 30.80317221 -57 29 C-56.67 25.7 -56.34 22.4 -56 19 C-55.67 19 -55.34 19 -55 19 C-54.77213542 21.05078125 -54.54427083 23.1015625 -54.31640625 25.15234375 C-54.18113386 27.01140229 -54.18113386 27.01140229 -53 28 C-51.65252916 28.23075082 -50.29622435 28.41153063 -48.9375 28.5625 C-47.638125 28.706875 -46.33875 28.85125 -45 29 C-45.061875 27.39125 -45.061875 27.39125 -45.125 25.75 C-45.00287949 22.08638457 -44.66476218 21.052064 -43 18 C-42.61993739 16.61099419 -42.26802387 15.21412002 -41.9375 13.8125 C-41 10 -41 10 -40 9 C-37.70848583 8.91209025 -35.41427476 8.89305962 -33.12109375 8.90234375 C-32.09110008 8.90446617 -32.09110008 8.90446617 -31.04029846 8.90663147 C-28.83932199 8.91224521 -26.63844591 8.92479993 -24.4375 8.9375 C-22.94856917 8.94251324 -21.45963676 8.94707645 -19.97070312 8.95117188 C-16.31376925 8.96221907 -12.65689442 8.97949287 -9 9 C-9 8.34 -9 7.68 -9 7 C-8.01 6.67 -7.02 6.34 -6 6 C-4.61423077 4.37667033 -3.27358732 2.71275535 -2 1 C-1.505 1.495 -1.505 1.495 -1 2 C-0.67 1.34 -0.34 0.68 0 0 Z " fill="#D38F49" transform="translate(412,697)"/>
<path d="M0 0 C4.46635712 0.65361324 8.67060054 1.73361205 13 3 C12.88406494 3.54938232 12.76812988 4.09876465 12.64868164 4.66479492 C12.11968524 7.17230658 11.59108912 9.67990246 11.0625 12.1875 C10.88009766 13.05181641 10.69769531 13.91613281 10.50976562 14.80664062 C10.24389648 16.06831055 10.24389648 16.06831055 9.97265625 17.35546875 C9.72914429 18.51018677 9.72914429 18.51018677 9.48071289 19.68823242 C8.97444749 22.12288307 8.48768797 24.56156016 8 27 C11.96 27 15.92 27 20 27 C20 27.99 20 28.98 20 30 C15.71 29.34 11.42 28.68 7 28 C5.8422494 24.52674819 5.93133348 21.63932552 6 18 C6.66 18 7.32 18 8 18 C8 15.36 8 12.72 8 10 C8.66 10 9.32 10 10 10 C10 8.02 10 6.04 10 4 C6.7 4 3.4 4 0 4 C0.020625 5.299375 0.04125 6.59875 0.0625 7.9375 C0.08399454 9.29165633 0.07148199 10.64756083 0 12 C-0.33 12.33 -0.66 12.66 -1 13 C-1.23192865 14.51469448 -1.41215238 16.03754562 -1.5625 17.5625 C-1.64628906 18.38878906 -1.73007812 19.21507812 -1.81640625 20.06640625 C-1.87699219 20.70449219 -1.93757813 21.34257813 -2 22 C-5.67062491 23.57312496 -7.44302674 24.14440048 -11.375 23.125 C-12.24125 22.75375 -13.1075 22.3825 -14 22 C-14 21.34 -14 20.68 -14 20 C-11.03 20.33 -8.06 20.66 -5 21 C-4.89042969 20.32195313 -4.78085937 19.64390625 -4.66796875 18.9453125 C-3.56212481 12.4540985 -2.03701908 6.26043863 0 0 Z " fill="#D99142" transform="translate(366,578)"/>
<path d="M0 0 C0.99 0 1.98 0 3 0 C1.45592542 8.82641212 -0.1157926 17.4905654 -3 26 C6.94137814 28.272315 18.35867904 30.16426015 28 26 C30.1747251 21.74940094 30.5784863 17.71053128 30 13 C28.54404702 10.40262047 26.89634088 8.32301757 25 6 C28.39729794 7.40577846 30.07532843 8.86630939 32 12 C32.77694512 17.04252614 32.42150661 21.73548017 30.8125 26.5625 C28.63968578 29.4845605 27.44960907 29.94224694 24 31 C15.06063029 31.80318724 5.32302967 31.70701492 -3 28 C-4.9375 25.5625 -4.9375 25.5625 -5 22 C-4.43087939 18.98930852 -3.70071049 16.07474842 -2.87109375 13.125 C-1.66439412 8.79603271 -0.83003563 4.41383655 0 0 Z " fill="#DD933B" transform="translate(367,618)"/>
<path d="M0 0 C0.33 0 0.66 0 1 0 C1 2.64 1 5.28 1 8 C1.969375 8.12375 2.93875 8.2475 3.9375 8.375 C4.948125 8.58125 5.95875 8.7875 7 9 C7.33 9.66 7.66 10.32 8 11 C10.51110638 11.63951074 12.95569966 12.16749278 15.5 12.625 C16.20253906 12.7590625 16.90507812 12.893125 17.62890625 13.03125 C20.79245108 13.71472197 20.79245108 13.71472197 24 14 C24.09765625 20.15234375 24.09765625 20.15234375 24 22 C23.67 22.33 23.34 22.66 23 23 C22.71520878 25.77558423 22.55156981 28.55127845 22.37890625 31.3359375 C22 34 22 34 20 37 C23.63 37.33 27.26 37.66 31 38 C31 38.99 31 39.98 31 41 C26.428721 40.45144652 22.32564205 39.58255197 18 38 C19.10355089 30.44392214 20.59343789 23.25177382 23 16 C22.06994141 15.85304688 22.06994141 15.85304688 21.12109375 15.703125 C12.92620955 14.31941821 4.99748229 12.22332166 -3 10 C-2.33758211 6.44920141 -1.42518229 3.32542534 0 0 Z " fill="#D58D3E" transform="translate(313,682)"/>
<path d="M0 0 C6.08233706 0.67581523 12.01314152 1.73638028 18 3 C18 3.66 18 4.32 18 5 C18.66386719 5.15855469 19.32773437 5.31710937 20.01171875 5.48046875 C26.41801114 7.1732263 30.48910186 8.95271314 34.1171875 14.80078125 C35.22896041 17.57037482 35.19581591 19.77573176 35.125 22.75 C35.10695313 23.73484375 35.08890625 24.7196875 35.0703125 25.734375 C35.04710937 26.48203125 35.02390625 27.2296875 35 28 C34.34 28 33.68 28 33 28 C33.04640625 27.41992188 33.0928125 26.83984375 33.140625 26.2421875 C33.40106454 20.60553166 32.94841929 17.35338537 29 13 C20.7747574 6.96815542 9.70068891 4.72519353 0 2 C-0.33 4.31 -0.66 6.62 -1 9 C-1.33 9 -1.66 9 -2 9 C-2.25 3.375 -2.25 3.375 0 0 Z " fill="#CF8C3F" transform="translate(360,655)"/>
<path d="M0 0 C8.91 1.98 8.91 1.98 18 4 C18 4.33 18 4.66 18 5 C12.22192976 5.2358396 7.48675196 4.86783046 2 3 C1.855625 3.763125 1.71125 4.52625 1.5625 5.3125 C1 8 1 8 0 11 C0.66 11 1.32 11 2 11 C2 11.99 2 12.98 2 14 C3.8871875 13.87625 3.8871875 13.87625 5.8125 13.75 C8.01953125 13.734375 8.01953125 13.734375 10 14 C12 16 12 16 13 18 C12.67 18.66 12.34 19.32 12 20 C11.45859375 19.53980469 10.9171875 19.07960938 10.359375 18.60546875 C7.67945529 16.781881 5.38550598 16.09637649 2.25 15.3125 C1.26515625 15.06113281 0.2803125 14.80976562 -0.734375 14.55078125 C-1.48203125 14.36902344 -2.2296875 14.18726563 -3 14 C-2.69024532 12.22868439 -2.37709575 10.45796222 -2.0625 8.6875 C-1.88847656 7.70136719 -1.71445312 6.71523438 -1.53515625 5.69921875 C-1 3 -1 3 0 0 Z " fill="#DD943C" transform="translate(334,593)"/>
<path d="M0 0 C0.68578125 0.25910156 1.3715625 0.51820313 2.078125 0.78515625 C2.78453125 1.03394531 3.4909375 1.28273438 4.21875 1.5390625 C5.26289063 1.93931641 5.26289063 1.93931641 6.328125 2.34765625 C7.03453125 2.61707031 7.7409375 2.88648438 8.46875 3.1640625 C8.99984375 3.36902344 9.5309375 3.57398438 10.078125 3.78515625 C10.27106908 8.60875814 9.83560114 12.28162363 8.078125 16.78515625 C7.418125 16.78515625 6.758125 16.78515625 6.078125 16.78515625 C7.078125 8.21372768 7.078125 8.21372768 8.078125 4.78515625 C6.799375 4.64078125 5.520625 4.49640625 4.203125 4.34765625 C1.82119606 4.07872879 0.23359809 3.86289279 -1.921875 2.78515625 C-3.241875 8.72515625 -4.561875 14.66515625 -5.921875 20.78515625 C-6.251875 20.78515625 -6.581875 20.78515625 -6.921875 20.78515625 C-7.45698094 6.33729584 -7.45698094 6.33729584 -3.59765625 0.9296875 C-1.921875 -0.21484375 -1.921875 -0.21484375 0 0 Z " fill="#D0893C" transform="translate(350.921875,699.21484375)"/>
<path d="M0 0 C0.66 0 1.32 0 2 0 C2 0.66 2 1.32 2 2 C7.94 1.505 7.94 1.505 14 1 C14 1.66 14 2.32 14 3 C7.565 3.495 7.565 3.495 1 4 C1 5.32 1 6.64 1 8 C1.99 8 2.98 8 4 8 C4 9.32 4 10.64 4 12 C2.35 12 0.7 12 -1 12 C-1 9.69 -1 7.38 -1 5 C-3.64 5 -6.28 5 -9 5 C-8.67 3.68 -8.34 2.36 -8 1 C-7.01 1 -6.02 1 -5 1 C-5 1.66 -5 2.32 -5 3 C-3.35 3 -1.7 3 0 3 C0 2.01 0 1.02 0 0 Z " fill="#212021" transform="translate(315,700)"/>
<path d="M0 0 C2.31 0 4.62 0 7 0 C6.01 0.495 6.01 0.495 5 1 C4.41433358 2.97758332 4.41433358 2.97758332 4.0625 5.375 C3.04282027 11.019947 1.57218608 16.4868675 0 22 C-1.43836751 21.88541307 -2.87570966 21.75790884 -4.3125 21.625 C-5.11300781 21.55539062 -5.91351563 21.48578125 -6.73828125 21.4140625 C-9 21 -9 21 -12 19 C-9.02148438 19.04882812 -9.02148438 19.04882812 -6.04296875 19.09765625 C-3.79694539 19.08263217 -3.79694539 19.08263217 -1 18 C-0.34 13.71 0.32 9.42 1 5 C0.34 5 -0.32 5 -1 5 C-0.67 3.35 -0.34 1.7 0 0 Z " fill="#1C0A03" transform="translate(361,577)"/>
<path d="M0 0 C0.33 0 0.66 0 1 0 C1.28643366 5.53771745 1.24524216 9.24803827 -2 14 C-5.33929277 15.37071406 -7.72841655 14.81119693 -11.125 13.8125 C-12.42824219 13.45091797 -12.42824219 13.45091797 -13.7578125 13.08203125 C-16.43210006 11.79147784 -16.99165688 10.73612205 -18 8 C-17.01 6.68 -16.02 5.36 -15 4 C-15 5.65 -15 7.3 -15 9 C-9.06 10.485 -9.06 10.485 -3 12 C-2.01 8.04 -1.02 4.08 0 0 Z " fill="#140201" transform="translate(370,717)"/>
<path d="M0 0 C0.99 0.33 1.98 0.66 3 1 C-1.14437909 6.69852124 -5.26139976 9.8344915 -12.17578125 11.53515625 C-20.13655406 12.69916841 -28.11692278 11.18343963 -36 10 C-36 9.67 -36 9.34 -36 9 C-27.09 9 -18.18 9 -9 9 C-9 8.34 -9 7.68 -9 7 C-8.01 6.67 -7.02 6.34 -6 6 C-4.61423077 4.37667033 -3.27358732 2.71275535 -2 1 C-1.505 1.495 -1.505 1.495 -1 2 C-0.67 1.34 -0.34 0.68 0 0 Z " fill="#DD9138" transform="translate(412,697)"/>
<path d="M0 0 C0.33 0 0.66 0 1 0 C1.31248845 5.20814086 1.04636522 8.67612679 -2 13 C-7.28692062 15.82369624 -11.50408018 16.4460153 -17.4375 16.3125 C-18.50581055 16.31733398 -18.50581055 16.31733398 -19.59570312 16.32226562 C-24.67487756 16.27152001 -29.11480794 15.38239369 -34 14 C-34 13.67 -34 13.34 -34 13 C-32.56260487 12.97287934 -31.12506137 12.95354933 -29.6875 12.9375 C-28.48673828 12.92009766 -28.48673828 12.92009766 -27.26171875 12.90234375 C-25 13 -25 13 -22 14 C-19.47287897 14.01422929 -17.01767345 13.95396927 -14.5 13.8125 C-13.48486328 13.78446289 -13.48486328 13.78446289 -12.44921875 13.75585938 C-10.20669226 13.67192412 -10.20669226 13.67192412 -7 13 C-5.20751497 11.04381982 -5.20751497 11.04381982 -4 9 C-3.01 9 -2.02 9 -1 9 C-0.67 6.03 -0.34 3.06 0 0 Z " fill="#2A0E02" transform="translate(393,674)"/>
<path d="M0 0 C6.66479636 6.31401761 6.66479636 6.31401761 7.30078125 11.41015625 C7.33157179 18.37908089 7.25342518 27.32703337 2.39453125 32.8125 C1.70423828 33.4003125 1.70423828 33.4003125 1 34 C1.11442461 32.39504433 1.24194694 30.79101881 1.375 29.1875 C1.47941406 27.84751953 1.47941406 27.84751953 1.5859375 26.48046875 C2 24 2 24 4 21 C4.94332955 13.49723943 4.30381572 8.1867351 0 2 C0 1.34 0 0.68 0 0 Z " fill="#C88842" transform="translate(414,663)"/>
<path d="M0 0 C7.49783065 0.88957313 7.49783065 0.88957313 10.3359375 1.51367188 C12.91861911 1.98514381 15.24266521 2.11456345 17.86328125 2.09765625 C18.74951172 2.09443359 19.63574219 2.09121094 20.54882812 2.08789062 C21.46083984 2.07951172 22.37285156 2.07113281 23.3125 2.0625 C24.24384766 2.05798828 25.17519531 2.05347656 26.13476562 2.04882812 C28.42324373 2.03709234 30.71158808 2.02067363 33 2 C32.67 2.99 32.34 3.98 32 5 C9.19426371 5.64732439 9.19426371 5.64732439 2 2 C1.34 1.34 0.68 0.68 0 0 Z " fill="#D9933E" transform="translate(354,687)"/>
<path d="M0 0 C4.95 0.99 4.95 0.99 10 2 C9.71125 3.4025 9.4225 4.805 9.125 6.25 C8.08846144 11.35239757 7.29780776 16.47518671 6.5625 21.62890625 C6.376875 22.41136719 6.19125 23.19382812 6 24 C5.34 24.33 4.68 24.66 4 25 C3.6309795 13.47835991 3.6309795 13.47835991 6 8 C5.34 7.67 4.68 7.34 4 7 C4.99 6.67 5.98 6.34 7 6 C7 5.01 7 4.02 7 3 C4.69 2.67 2.38 2.34 0 2 C0 1.34 0 0.68 0 0 Z " fill="#210A01" transform="translate(326,696)"/>
<path d="M0 0 C3.39729794 1.40577846 5.07532843 2.86630939 7 6 C7.94220094 12.11506886 7.55942204 17.79776778 4 23 C0.69005287 24.65497356 -2.99123 24.10084335 -6.625 24.0625 C-7.42679687 24.05798828 -8.22859375 24.05347656 -9.0546875 24.04882812 C-11.03649006 24.03703168 -13.01825433 24.01909605 -15 24 C-15 23.67 -15 23.34 -15 23 C-13.30230469 22.80083984 -13.30230469 22.80083984 -11.5703125 22.59765625 C-10.08851821 22.4194658 -8.60674864 22.24106971 -7.125 22.0625 C-6.37863281 21.97548828 -5.63226563 21.88847656 -4.86328125 21.79882812 C-0.8046769 21.36673937 -0.8046769 21.36673937 3 20 C4.8996672 15.56744321 5.58870131 11.79371063 5 7 C3.54404702 4.40262047 1.89634088 2.32301757 0 0 Z " fill="#D58F43" transform="translate(392,624)"/>
<path d="M0 0 C1.05284747 3.29645533 0.93680928 5.79475212 0.44140625 9.203125 C0.30283203 10.1828125 0.16425781 11.1625 0.02148438 12.171875 C-0.20571289 13.69554687 -0.20571289 13.69554687 -0.4375 15.25 C-0.58509766 16.28125 -0.73269531 17.3125 -0.88476562 18.375 C-1.24969505 20.91773403 -1.62167522 23.45923037 -2 26 C-3.32 26 -4.64 26 -6 26 C-4.39840797 17.23339098 -2.20549731 8.62927587 0 0 Z " fill="#3B1806" transform="translate(359,661)"/>
<path d="M0 0 C0.99 0.33 1.98 0.66 3 1 C5.86894261 1.84140068 8.32703357 2.08732626 11.3125 2 C12.529375 2 13.74625 2 15 2 C15.66 2.66 16.32 3.32 17 4 C16 5 16 5 12.3125 5.1875 C8.5586147 5.15368121 5.50557404 4.40222961 2 3 C1.566875 4.0828125 1.566875 4.0828125 1.125 5.1875 C0.08333333 7.79166667 -0.95833333 10.39583333 -2 13 C-2.33 13 -2.66 13 -3 13 C-2.88490339 11.58249437 -2.75746342 10.16598831 -2.625 8.75 C-2.55539062 7.96109375 -2.48578125 7.1721875 -2.4140625 6.359375 C-1.98492887 3.914123 -1.21399362 2.15163097 0 0 Z " fill="#1F0A02" transform="translate(314,674)"/>
<path d="M0 0 C0 3 0 3 -0.5625 5.4375 C-1.01974544 8.11565183 -1.1084778 9.52724182 0 12 C1.9837767 13.28436734 1.9837767 13.28436734 4 14 C3.01 14.66 2.02 15.32 1 16 C0.278125 15.071875 -0.44375 14.14375 -1.1875 13.1875 C-3.4900141 10.39159002 -5.84755882 8.80139496 -9 7 C-9 6.34 -9 5.68 -9 5 C-7.88625 4.54625 -6.7725 4.0925 -5.625 3.625 C-2.03800992 2.27534014 -2.03800992 2.27534014 0 0 Z " fill="#301205" transform="translate(417,652)"/>
<path d="M0 0 C2 3 2 3 1.5390625 6.57421875 C1.24703719 7.94806509 0.94185048 9.31916586 0.625 10.6875 C0.39683594 11.7403418 0.39683594 11.7403418 0.1640625 12.81445312 C-0.21275232 14.5454462 -0.60491263 16.27308587 -1 18 C-1.66 18 -2.32 18 -3 18 C-3 18.99 -3 19.98 -3 21 C-6.96 21 -10.92 21 -15 21 C-15 20.01 -15 19.02 -15 18 C-11.37 18.66 -7.74 19.32 -4 20 C-3.71125 18.185 -3.4225 16.37 -3.125 14.5 C-2.30938748 9.58302168 -1.29521711 4.81080642 0 0 Z " fill="#CD8A3A" transform="translate(389,584)"/>
<path d="M0 0 C0.33 0 0.66 0 1 0 C1 2.64 1 5.28 1 8 C1.969375 8.12375 2.93875 8.2475 3.9375 8.375 C4.948125 8.58125 5.95875 8.7875 7 9 C7.33 9.66 7.66 10.32 8 11 C10.34907875 11.68931344 10.34907875 11.68931344 13.0625 12.125 C14.44115234 12.37636719 14.44115234 12.37636719 15.84765625 12.6328125 C16.91306641 12.81457031 16.91306641 12.81457031 18 13 C18 13.66 18 14.32 18 15 C10.80684375 13.83760783 3.93025566 12.25496388 -3 10 C-2.33758211 6.44920141 -1.42518229 3.32542534 0 0 Z " fill="#C88840" transform="translate(313,682)"/>
<path d="M0 0 C0.33 0 0.66 0 1 0 C1.05416188 1.60379341 1.09286638 3.20811406 1.125 4.8125 C1.14820313 5.70582031 1.17140625 6.59914063 1.1953125 7.51953125 C1 10 1 10 -1 13 C-3.95064148 13.2208564 -6.68368231 13.28060989 -9.625 13.1875 C-10.42679687 13.17396484 -11.22859375 13.16042969 -12.0546875 13.14648438 C-14.03674378 13.11109051 -16.01845551 13.05728234 -18 13 C-17.67 11.68 -17.34 10.36 -17 9 C-16.175 9.165 -15.35 9.33 -14.5 9.5 C-10.58727683 10.05896045 -6.94816827 10.06807187 -3 10 C-2.01 6.7 -1.02 3.4 0 0 Z " fill="#D89141" transform="translate(333,668)"/>
<path d="M0 0 C0.99 0 1.98 0 3 0 C2.67 1.65 2.34 3.3 2 5 C6.95 5.99 11.9 6.98 17 8 C17 8.33 17 8.66 17 9 C10.45066633 10.25832105 5.96060061 10.1931789 0 7 C-1.0625 4.4375 -1.0625 4.4375 -1 2 C-0.67 1.34 -0.34 0.68 0 0 Z " fill="#200801" transform="translate(308,687)"/>
<path d="M0 0 C6.08233706 0.67581523 12.01314152 1.73638028 18 3 C18 3.66 18 4.32 18 5 C11.42684522 5.36517527 6.20514474 4.13619737 0 2 C-0.33 4.31 -0.66 6.62 -1 9 C-1.33 9 -1.66 9 -2 9 C-2.25 3.375 -2.25 3.375 0 0 Z " fill="#D9913C" transform="translate(360,655)"/>
<path d="M0 0 C3.3 0.66 6.6 1.32 10 2 C9.67 4.64 9.34 7.28 9 10 C8.67 10 8.34 10 8 10 C8 7.69 8 5.38 8 3 C5.58414426 3.03093173 5.58414426 3.03093173 3 4 C1.14083176 6.96707046 1.14083176 6.96707046 0 10 C-0.66 10 -1.32 10 -2 10 C-1.125 2.25 -1.125 2.25 0 0 Z " fill="#220800" transform="translate(349,702)"/>
<path d="M0 0 C4.75 0.75 4.75 0.75 7 3 C4.03 2.505 4.03 2.505 1 2 C0.86722656 2.75925781 0.73445313 3.51851562 0.59765625 4.30078125 C0.42105469 5.29464844 0.24445313 6.28851562 0.0625 7.3125 C-0.11152344 8.29863281 -0.28554688 9.28476562 -0.46484375 10.30078125 C-1 13 -1 13 -2 16 C-1.34 16.33 -0.68 16.66 0 17 C-1.32 17 -2.64 17 -4 17 C-3.91227545 15.10333474 -3.80408699 13.20761007 -3.6875 11.3125 C-3.62949219 10.25675781 -3.57148438 9.20101562 -3.51171875 8.11328125 C-2.96217936 4.76990036 -1.91325982 2.76473738 0 0 Z " fill="#200B01" transform="translate(333,591)"/>
<path d="M0 0 C0.33 0 0.66 0 1 0 C1.02721176 1.89575251 1.04649136 3.79161979 1.0625 5.6875 C1.07410156 6.74324219 1.08570313 7.79898438 1.09765625 8.88671875 C1 12 1 12 0 17 C3.96 17 7.92 17 12 17 C12 17.99 12 18.98 12 20 C7.71 19.34 3.42 18.68 -1 18 C-2.1577506 14.52674819 -2.06866652 11.63932552 -2 8 C-1.34 8 -0.68 8 0 8 C0 5.36 0 2.72 0 0 Z " fill="#E59436" transform="translate(374,588)"/>
<path d="M0 0 C1.32 0 2.64 0 4 0 C4 0.66 4 1.32 4 2 C6.31 2 8.62 2 11 2 C11 2.66 11 3.32 11 4 C13.31 4.33 15.62 4.66 18 5 C17.67 5.99 17.34 6.98 17 8 C11.06 6.35 5.12 4.7 -1 3 C-0.67 2.01 -0.34 1.02 0 0 Z " fill="#D38B39" transform="translate(371,615)"/>
<path d="M0 0 C1.98 0.495 1.98 0.495 4 1 C3.01 1.33 2.02 1.66 1 2 C1 4.64 1 7.28 1 10 C1.78375 9.814375 2.5675 9.62875 3.375 9.4375 C6 9 6 9 8 10 C8 10.66 8 11.32 8 12 C12.455 12.99 12.455 12.99 17 14 C17 14.33 17 14.66 17 15 C13.7 14.67 10.4 14.34 7 14 C6.67 13.01 6.34 12.02 6 11 C4.02 11 2.04 11 0 11 C-1.35015859 6.94952424 -0.62084998 4.2079832 0 0 Z " fill="#ED932A" transform="translate(314,680)"/>
<path d="M0 0 C1 3 1 3 0 5.8125 C-2.39167467 9.6242315 -5.12781797 12.65170896 -9 15 C-10.32 15 -11.64 15 -13 15 C-12.67 13.68 -12.34 12.36 -12 11 C-10.88625 10.7525 -9.7725 10.505 -8.625 10.25 C-4.95384802 9.38994661 -4.95384802 9.38994661 -3.5625 6.875 C-3.376875 6.25625 -3.19125 5.6375 -3 5 C-2.34 5 -1.68 5 -1 5 C-0.67 3.35 -0.34 1.7 0 0 Z " fill="#DE964C" transform="translate(421,642)"/>
<path d="M0 0 C7.3452188 0.83468395 7.3452188 0.83468395 10 4 C10.50031009 9.25325593 10.39697276 11.20605447 8 16 C7.67 12.04 7.34 8.08 7 4 C5.35 4 3.7 4 2 4 C2 3.34 2 2.68 2 2 C1.34 2 0.68 2 0 2 C0 1.34 0 0.68 0 0 Z " fill="#2B1002" transform="translate(336,608)"/>
<path d="M0 0 C1.34084273 4.35169904 0.35194043 7.8830452 -0.75 12.1875 C-1.00523437 13.29254883 -1.00523437 13.29254883 -1.265625 14.41992188 C-1.796875 16.54296875 -1.796875 16.54296875 -3 20 C-3.99 20.33 -4.98 20.66 -6 21 C-6 19.02 -6 17.04 -6 15 C-5.01 14.67 -4.02 14.34 -3 14 C-3 12.02 -3 10.04 -3 8 C-2.34 8 -1.68 8 -1 8 C-0.67 5.36 -0.34 2.72 0 0 Z " fill="#DD943D" transform="translate(357,664)"/>
<path d="M0 0 C2.97 0 5.94 0 9 0 C9 0.66 9 1.32 9 2 C10.32 2.66 11.64 3.32 13 4 C13.26218749 7.14624993 13.24754367 8.61837017 11.5 11.3125 C11.005 11.869375 10.51 12.42625 10 13 C8.96404478 8.97128525 9.13011146 7.34944269 10 3 C6.7 2.34 3.4 1.68 0 1 C0 0.67 0 0.34 0 0 Z " fill="#341609" transform="translate(392,584)"/>
<path d="M0 0 C0.99 0.33 1.98 0.66 3 1 C3.99 0.67 4.98 0.34 6 0 C5.375 2.875 5.375 2.875 4 6 C0.29247139 7.81256954 -2.90540819 8.24085834 -7 8 C-6.401875 7.79375 -5.80375 7.5875 -5.1875 7.375 C-2.18981233 5.49073918 -1.38638224 3.18867916 0 0 Z " fill="#1A0704" transform="translate(391,639)"/>
<path d="M0 0 C0.33 0 0.66 0 1 0 C1 2.97 1 5.94 1 9 C-2.67062491 10.57312496 -4.44302674 11.14440048 -8.375 10.125 C-9.24125 9.75375 -10.1075 9.3825 -11 9 C-11 8.34 -11 7.68 -11 7 C-8.03 7.33 -5.06 7.66 -2 8 C-1.7834375 6.576875 -1.7834375 6.576875 -1.5625 5.125 C-1 2 -1 2 0 0 Z " fill="#DA9436" transform="translate(363,591)"/>
<path d="M0 0 C0.33 0 0.66 0 1 0 C1.22786458 2.05078125 1.45572917 4.1015625 1.68359375 6.15234375 C1.81886614 8.01140229 1.81886614 8.01140229 3 9 C4.34747084 9.23075082 5.70377565 9.41153063 7.0625 9.5625 C8.361875 9.706875 9.66125 9.85125 11 10 C11 10.99 11 11.98 11 13 C6.6822542 12.49202991 2.96697886 11.80317221 -1 10 C-0.67 6.7 -0.34 3.4 0 0 Z " fill="#C58945" transform="translate(356,716)"/>
<path d="M0 0 C3.33848654 3.210435 4.85645241 5.72477065 5.15625 10.4765625 C5.2375 17.525 5.2375 17.525 4 20 C3.34 20 2.68 20 2 20 C2.02320313 19.31035156 2.04640625 18.62070312 2.0703125 17.91015625 C2.19191174 11.57831021 1.60663625 6.12530071 0 0 Z " fill="#C2863E" transform="translate(419,622)"/>
<path d="M0 0 C0.33 0 0.66 0 1 0 C1.02689216 1.47906892 1.04634621 2.95827483 1.0625 4.4375 C1.07410156 5.26121094 1.08570313 6.08492187 1.09765625 6.93359375 C1 9 1 9 0 10 C-0.22918242 14.01657143 -0.22918242 14.01657143 0 18 C0.66 18.66 1.32 19.32 2 20 C0.02 19.67 -1.96 19.34 -4 19 C-2.02 9.595 -2.02 9.595 0 0 Z " fill="#3A1A06" transform="translate(378,583)"/>
<path d="M0 0 C0.33 0 0.66 0 1 0 C1.30839695 9.2519084 1.30839695 9.2519084 -1 12 C-4.04647913 13.15272183 -5.61932547 13.11247202 -8.75 12.1875 C-11 11 -11 11 -12 9 C-7.05 9.99 -7.05 9.99 -2 11 C-1.34 7.37 -0.68 3.74 0 0 Z " fill="#300F03" transform="translate(346,712)"/>
<path d="M0 0 C0.33 0 0.66 0 1 0 C1 1.98 1 3.96 1 6 C2.15628906 6.29003906 2.15628906 6.29003906 3.3359375 6.5859375 C4.33882813 6.84632813 5.34171875 7.10671875 6.375 7.375 C7.37273437 7.63023437 8.37046875 7.88546875 9.3984375 8.1484375 C12 9 12 9 14 11 C8.72684667 10.5547115 3.98229776 9.91626837 -1 8 C-0.67 5.36 -0.34 2.72 0 0 Z " fill="#381604" transform="translate(365,636)"/>
<path d="M0 0 C2.97 0.495 2.97 0.495 6 1 C4.68 1.33 3.36 1.66 2 2 C2 2.66 2 3.32 2 4 C1.34 4 0.68 4 0 4 C0 6.64 0 9.28 0 12 C-0.99 12.33 -1.98 12.66 -3 13 C-2.68991116 11.39536551 -2.37683713 9.79130769 -2.0625 8.1875 C-1.88847656 7.29417969 -1.71445312 6.40085937 -1.53515625 5.48046875 C-1 3 -1 3 0 0 Z " fill="#CD8D43" transform="translate(366,578)"/>
<path d="M0 0 C8.91 1.98 8.91 1.98 18 4 C18 4.33 18 4.66 18 5 C12.80156794 5.20386008 8.80894715 5.19837584 4 3 C2.68 3 1.36 3 0 3 C0 2.01 0 1.02 0 0 Z " fill="#D19345" transform="translate(334,593)"/>
<path d="M0 0 C5.19926239 0.51992624 9.63713464 2.15038073 14 5 C14.99 6.485 14.99 6.485 16 8 C12.94536608 7.33201627 10.27524386 6.3060344 7.4375 5 C4.95829398 3.86282624 2.59298833 2.86432944 0 2 C0 1.34 0 0.68 0 0 Z " fill="#270C01" transform="translate(374,661)"/>
<path d="M0 0 C0.66 0.66 1.32 1.32 2 2 C1.56688253 5.92555674 0.20667 9.58687193 -1.0625 13.3125 C-1.42472656 14.38113281 -1.78695313 15.44976563 -2.16015625 16.55078125 C-2.43730469 17.35902344 -2.71445312 18.16726563 -3 19 C-3.33 19 -3.66 19 -4 19 C-4 17.02 -4 15.04 -4 13 C-3.34 13 -2.68 13 -2 13 C-1.93941406 12.31292969 -1.87882812 11.62585938 -1.81640625 10.91796875 C-1.73261719 10.01691406 -1.64882813 9.11585938 -1.5625 8.1875 C-1.48128906 7.29417969 -1.40007812 6.40085937 -1.31640625 5.48046875 C-1 3 -1 3 0 0 Z " fill="#ED9429" transform="translate(338,654)"/>
<path d="M0 0 C2.1640625 0.2421875 2.1640625 0.2421875 4.625 0.875 C5.44226563 1.07867188 6.25953125 1.28234375 7.1015625 1.4921875 C8.04128906 1.74355469 8.04128906 1.74355469 9 2 C8.01 2.495 8.01 2.495 7 3 C7 3.66 7 4.32 7 5 C7.99 5.33 8.98 5.66 10 6 C9.67 6.99 9.34 7.98 9 9 C8.29875 8.401875 7.5975 7.80375 6.875 7.1875 C4.02969023 5.02259039 1.23367233 3.50403364 -2 2 C-1.34 1.34 -0.68 0.68 0 0 Z " fill="#220F05" transform="translate(407,610)"/>
<path d="M0 0 C0.66 0.66 1.32 1.32 2 2 C1.54917531 3.46067199 1.08906463 4.91848032 0.625 6.375 C0.36976563 7.18710937 0.11453125 7.99921875 -0.1484375 8.8359375 C-1 11 -1 11 -3 13 C-2.88557539 11.39504433 -2.75805306 9.79101881 -2.625 8.1875 C-2.55539062 7.29417969 -2.48578125 6.40085937 -2.4140625 5.48046875 C-2 3 -2 3 0 0 Z " fill="#D78D33" transform="translate(418,684)"/>
<path d="M0 0 C1.25541557 3.76624671 0.37061958 5.37188934 -1 9 C-2.43836751 8.88541307 -3.87570966 8.75790884 -5.3125 8.625 C-6.51326172 8.52058594 -6.51326172 8.52058594 -7.73828125 8.4140625 C-10 8 -10 8 -13 6 C-10.02148438 6.04882812 -10.02148438 6.04882812 -7.04296875 6.09765625 C-4.79694539 6.08263217 -4.79694539 6.08263217 -2 5 C-0.78130071 2.49552484 -0.78130071 2.49552484 0 0 Z " fill="#3C1504" transform="translate(362,590)"/>
<path d="M0 0 C0.99 0 1.98 0 3 0 C3 1.65 3 3.3 3 5 C2.67 4.34 2.34 3.68 2 3 C1.34 3 0.68 3 0 3 C0 2.01 0 1.02 0 0 Z M-5 5 C-2.69 5 -0.38 5 2 5 C1.01 6.485 1.01 6.485 0 8 C-2.625 8.1875 -2.625 8.1875 -5 8 C-5 7.01 -5 6.02 -5 5 Z " fill="#02010E" transform="translate(388,637)"/>
<path d="M0 0 C-2 2 -2 2 -5.9140625 2.1953125 C-7.48449351 2.18200376 -9.05486221 2.15813602 -10.625 2.125 C-11.42679687 2.11597656 -12.22859375 2.10695313 -13.0546875 2.09765625 C-15.03658523 2.07406223 -17.01832981 2.03819065 -19 2 C-19 1.67 -19 1.34 -19 1 C-16.39674384 0.63752129 -13.79279598 0.28472345 -11.1875 -0.0625 C-10.44951172 -0.16626953 -9.71152344 -0.27003906 -8.95117188 -0.37695312 C-5.56825221 -0.82086566 -3.27944975 -1.09314992 0 0 Z " fill="#BF813B" transform="translate(396,646)"/>
<path d="M0 0 C0.66 0 1.32 0 2 0 C2 3.63 2 7.26 2 11 C1.01 11.495 1.01 11.495 0 12 C-1.16063604 7.74433453 -0.76173392 4.3164922 0 0 Z " fill="#D28A32" transform="translate(346,613)"/>
<path d="M0 0 C2.12472576 -0.05386629 4.24983652 -0.09273071 6.375 -0.125 C7.55835938 -0.14820313 8.74171875 -0.17140625 9.9609375 -0.1953125 C13 0 13 0 15 2 C14 3 14 3 10.3125 3.1875 C6.5586147 3.15368121 3.50557404 2.40222961 0 1 C0 0.67 0 0.34 0 0 Z " fill="#3C1A05" transform="translate(316,676)"/>
<path d="M0 0 C1.49341969 2.98683937 0.40648676 4.95160978 -0.4375 8.125 C-0.72496094 9.22070312 -1.01242187 10.31640625 -1.30859375 11.4453125 C-1.53675781 12.28835938 -1.76492188 13.13140625 -2 14 C-3.51047521 11.61704813 -4.09191411 10.501733 -3.57421875 7.67578125 C-3.28160156 6.89589844 -2.98898437 6.11601563 -2.6875 5.3125 C-2.40261719 4.52488281 -2.11773437 3.73726562 -1.82421875 2.92578125 C-1 1 -1 1 0 0 Z " fill="#2A1001" transform="translate(334,662)"/>
<path d="M0 0 C1.53760842 3.07521683 0.36599236 5.34675118 -0.4375 8.625 C-0.72496094 9.81351563 -1.01242187 11.00203125 -1.30859375 12.2265625 C-1.53675781 13.14179687 -1.76492188 14.05703125 -2 15 C-3.84718509 11.85702835 -4.06026467 11.28123511 -3.25 7.5 C-2.30497605 4.85393294 -1.36804361 2.44293501 0 0 Z " fill="#2E1205" transform="translate(338,646)"/>
<path d="M0 0 C3.25696479 0.41755959 4.63443291 0.63443291 7 3 C4.03 2.505 4.03 2.505 1 2 C0.67 4.64 0.34 7.28 0 10 C-0.33 10 -0.66 10 -1 10 C-1.02689216 8.52093108 -1.04634621 7.04172517 -1.0625 5.5625 C-1.07410156 4.73878906 -1.08570313 3.91507813 -1.09765625 3.06640625 C-1 1 -1 1 0 0 Z " fill="#321505" transform="translate(333,591)"/>
<path d="M0 0 C0.66 0.33 1.32 0.66 2 1 C2.28571429 9.57142857 2.28571429 9.57142857 0 13 C-0.66 13 -1.32 13 -2 13 C-2 12.01 -2 11.02 -2 10 C-1.34 10 -0.68 10 0 10 C0 6.7 0 3.4 0 0 Z " fill="#0A000B" transform="translate(360,583)"/>
<path d="M0 0 C1.98 0 3.96 0 6 0 C5.360625 0.20625 4.72125 0.4125 4.0625 0.625 C1.65074923 1.89538209 1.65074923 1.89538209 1.25 5.125 C1.1675 6.07375 1.085 7.0225 1 8 C0.34 8 -0.32 8 -1 8 C-0.67 5.36 -0.34 2.72 0 0 Z " fill="#371202" transform="translate(372,708)"/>
<path d="M0 0 C0.33 0 0.66 0 1 0 C1.125 7.625 1.125 7.625 0 11 C-0.99 11.33 -1.98 11.66 -3 12 C-2.01 8.04 -1.02 4.08 0 0 Z " fill="#331606" transform="translate(370,717)"/>
<path d="M0 0 C-0.33 0.99 -0.66 1.98 -1 3 C-5.29 2.67 -9.58 2.34 -14 2 C-14 1.67 -14 1.34 -14 1 C-12.22932584 0.83165067 -10.45845388 0.66538091 -8.6875 0.5 C-7.70136719 0.4071875 -6.71523438 0.314375 -5.69921875 0.21875 C-3 0 -3 0 0 0 Z " fill="#C08237" transform="translate(387,689)"/>
<path d="M0 0 C0.33 0.99 0.66 1.98 1 3 C4.96 3 8.92 3 13 3 C13 3.99 13 4.98 13 6 C8.71 5.34 4.42 4.68 0 4 C0 2.68 0 1.36 0 0 Z " fill="#F1942D" transform="translate(373,602)"/>
<path d="M0 0 C0.33 0 0.66 0 1 0 C1 1.65 1 3.3 1 5 C2.65 5.33 4.3 5.66 6 6 C6 6.33 6 6.66 6 7 C3.69 7 1.38 7 -1 7 C-1.625 5.1875 -1.625 5.1875 -2 3 C-1.34 2.01 -0.68 1.02 0 0 Z " fill="#2C1205" transform="translate(354,721)"/>
<path d="M0 0 C4.875 4.625 4.875 4.625 6 8 C5.5625 10.1875 5.5625 10.1875 5 12 C4.73445313 11.45730469 4.46890625 10.91460938 4.1953125 10.35546875 C3.84210938 9.64003906 3.48890625 8.92460938 3.125 8.1875 C2.77695312 7.47980469 2.42890625 6.77210938 2.0703125 6.04296875 C0.9343514 3.78753582 0.9343514 3.78753582 -1 1 C-0.67 0.67 -0.34 0.34 0 0 Z " fill="#2A1001" transform="translate(418,618)"/>
<path d="M0 0 C5.94 1.485 5.94 1.485 12 3 C11.34 4.32 10.68 5.64 10 7 C9.67 5.68 9.34 4.36 9 3 C6.03 2.67 3.06 2.34 0 2 C0 1.34 0 0.68 0 0 Z " fill="#D89B4F" transform="translate(390,584)"/>
<path d="M0 0 C0.99 0.33 1.98 0.66 3 1 C3 2.65 3 4.3 3 6 C1.68 6 0.36 6 -1 6 C-0.67 4.02 -0.34 2.04 0 0 Z " fill="#020211" transform="translate(389,675)"/>
<path d="M0 0 C-0.33 1.65 -0.66 3.3 -1 5 C-2.32 5 -3.64 5 -5 5 C-4.625 3.0625 -4.625 3.0625 -4 1 C-2 0 -2 0 0 0 Z " fill="#E2913A" transform="translate(413,652)"/>
<path d="M0 0 C2.61973266 2.61973266 2.70813314 4.35166422 3 8 C2.0625 10.375 2.0625 10.375 1 12 C-0.3271261 8.0186217 -0.06915913 4.14954773 0 0 Z " fill="#240E0C" transform="translate(338,633)"/>
<path d="M0 0 C3.79588866 0.54226981 5.47211993 2.20127563 8 5 C7.67 5.99 7.34 6.98 7 8 C6.5875 7.360625 6.175 6.72125 5.75 6.0625 C3.82189513 3.79009069 2.88575819 3.39803561 0 3 C0 2.01 0 1.02 0 0 Z " fill="#E09341" transform="translate(411,616)"/>
<path d="M0 0 C0.33 0 0.66 0 1 0 C0.88541307 1.43836751 0.75790884 2.87570966 0.625 4.3125 C0.55539062 5.11300781 0.48578125 5.91351562 0.4140625 6.73828125 C0 9 0 9 -2 12 C-2.28571429 3.42857143 -2.28571429 3.42857143 0 0 Z " fill="#D8923C" transform="translate(369,715)"/>
<path d="M0 0 C4.95 0.99 4.95 0.99 10 2 C6 4 6 4 2.75 3.125 C1.8425 2.75375 0.935 2.3825 0 2 C0 1.34 0 0.68 0 0 Z " fill="#3A1402" transform="translate(360,657)"/>
<path d="M0 0 C0.66 0 1.32 0 2 0 C2.12375 0.78375 2.2475 1.5675 2.375 2.375 C2.79117993 5.14057822 2.79117993 5.14057822 5 7 C2.03 6.505 2.03 6.505 -1 6 C-0.67 4.02 -0.34 2.04 0 0 Z " fill="#2F1001" transform="translate(375,596)"/>
<path d="M0 0 C2.64 0.33 5.28 0.66 8 1 C8 1.33 8 1.66 8 2 C5.69 2.33 3.38 2.66 1 3 C0.67 3.99 0.34 4.98 0 6 C-0.66 5.67 -1.32 5.34 -2 5 C-1.34 3.35 -0.68 1.7 0 0 Z " fill="#E79722" transform="translate(391,586)"/>
<path d="M0 0 C0.66 0 1.32 0 2 0 C1.67 3.63 1.34 7.26 1 11 C0.34 11 -0.32 11 -1 11 C-1.02688151 9.35425434 -1.04634123 7.70838587 -1.0625 6.0625 C-1.07410156 5.14597656 -1.08570313 4.22945312 -1.09765625 3.28515625 C-1 1 -1 1 0 0 Z " fill="#331404" transform="translate(331,710)"/>
<path d="M0 0 C-0.66 1.32 -1.32 2.64 -2 4 C-3.98 4 -5.96 4 -8 4 C-2.7826087 0 -2.7826087 0 0 0 Z " fill="#361504" transform="translate(410,704)"/>
<path d="M0 0 C2.475 0.99 2.475 0.99 5 2 C4.67 2.99 4.34 3.98 4 5 C2.68 4.67 1.36 4.34 0 4 C0 2.68 0 1.36 0 0 Z " fill="#F6950B" transform="translate(408,663)"/>
<path d="M0 0 C1 3 1 3 0 6 C-1.65 6 -3.3 6 -5 6 C-2.25 1.125 -2.25 1.125 0 0 Z " fill="#2F1002" transform="translate(385,598)"/>
</svg>
